<svg width="112" height="112" viewBox="0 0 112 112" fill="none" xmlns="http://www.w3.org/2000/svg">
<path d="M56 112C41.0413 112 26.9789 106.175 16.402 95.598C5.82507 85.0211 0 70.9579 0 56C0 41.0421 5.82507 26.9789 16.402 16.402C26.9789 5.82507 41.0413 0 56 0C70.9579 0 85.0211 5.82507 95.598 16.402C106.175 26.9789 112 41.0421 112 56C112 70.9579 106.175 85.0211 95.598 95.598C85.0211 106.175 70.9579 112 56 112ZM56 6.5625C28.74 6.5625 6.5625 28.74 6.5625 56C6.5625 83.26 28.74 105.438 56 105.438C83.26 105.438 105.438 83.26 105.438 56C105.438 28.74 83.26 6.5625 56 6.5625Z" fill="#2CB742"/>
<path d="M49.1385 74.9287C48.2994 74.9287 47.4595 74.6082 46.8186 73.9674L29.246 56.3947C27.9642 55.1139 27.9642 53.0357 29.246 51.7549C30.5269 50.4731 32.605 50.4731 33.8859 51.7549L49.1394 67.0075L78.1144 38.0317C79.3953 36.7508 81.4734 36.7508 82.7543 38.0317C84.036 39.3134 84.036 41.3907 82.7543 42.6725L51.4585 73.9682C50.8185 74.6082 49.9785 74.9287 49.1385 74.9287Z" fill="#2CB742"/>
</svg>
