<svg xmlns="http://www.w3.org/2000/svg" xmlns:xlink="http://www.w3.org/1999/xlink" xml:space="preserve" style="fill-rule:evenodd;clip-rule:evenodd;stroke-linejoin:round;stroke-miterlimit:2" viewBox="0 0 221 138">
  <defs>
    <path id="a" d="M0 0h221v138H0z" style="fill:none"/>
  </defs>
  <use xlink:href="#a" style="fill:none"/>
  <clipPath id="b">
    <use xlink:href="#a"/>
  </clipPath>
  <g clip-path="url(#b)">
    <path d="M19.707 0h181.587C212.132 0 221 8.9 221 19.771v98.458C221 129.1 212.129 138 201.294 138H19.707C8.871 138 0 129.103 0 118.229V19.771C0 8.897 8.868 0 19.707 0Z" style="fill:#fff;fill-opacity:.5"/>
    <path d="M191.853 39.849c0-5.508-4.471-9.979-9.979-9.979H39.126c-5.508 0-9.979 4.471-9.979 9.979v58.302c0 5.507 4.471 9.979 9.979 9.979h142.748c5.508 0 9.979-4.472 9.979-9.979V39.849Z" style="fill:#e30617"/>
    <path d="M49.776 63.229c7.863-1.815 16.144-1.815 24.843 0 3.597.75 6.68 3.016 6.68 6.702v15.29c0 3.686-3.081 5.961-6.68 6.702-8.142 1.675-16.423 1.675-24.843 0-3.604-.717-6.68-3.016-6.68-6.702v-15.29c0-3.686 3.099-5.876 6.68-6.702Zm34.775 9.57 11.874-7.261c1.057-.646 3.29.381 3.29 1.622v20.852c0 1.24-2.242 2.262-3.298 1.616l-11.866-7.255c-1.056-.646-2.25-1.016-2.25-2.257v-5.06c0-1.241 1.193-1.611 2.25-2.257Z" style="fill:#fff"/>
    <path d="M50.035 57.013h.003v.009c.987 0 1.886-.408 2.542-1.066a3.609 3.609 0 0 0 1.062-2.548h-.009v-.004h.009c0-.989-.406-1.892-1.063-2.55a3.586 3.586 0 0 0-2.539-1.065v.009h-.004v-.009c-.986 0-1.885.408-2.541 1.066a3.603 3.603 0 0 0-1.062 2.548h.009v.003h-.009c0 .99.406 1.892 1.063 2.55a3.579 3.579 0 0 0 2.539 1.066v-.009Zm.003 4.6v.009h-.003v-.009a8.146 8.146 0 0 1-5.788-2.398 8.2 8.2 0 0 1-2.39-5.809h-.009v-.003h.009a8.2 8.2 0 0 1 2.389-5.807 8.149 8.149 0 0 1 5.79-2.398v-.009h.004v.009a8.146 8.146 0 0 1 5.787 2.397 8.197 8.197 0 0 1 2.391 5.809h.009v.004h-.009a8.198 8.198 0 0 1-2.39 5.806 8.142 8.142 0 0 1-5.79 2.399Zm21.015.007h-.003v-.009a11.586 11.586 0 0 1-8.233-3.413 11.656 11.656 0 0 1-3.401-8.257h-.01v-.004h.01c0-3.231 1.3-6.151 3.402-8.259a11.58 11.58 0 0 1 8.23-3.413v-.009h.004v.009c3.22 0 6.131 1.305 8.232 3.413a11.664 11.664 0 0 1 3.402 8.258h.009v.003h-.009a11.66 11.66 0 0 1-3.403 8.26 11.584 11.584 0 0 1-8.23 3.412v.009Zm-.003-4.6v-.009h.003v.009a7.019 7.019 0 0 0 4.982-2.08 7.074 7.074 0 0 0 2.075-5.001h-.009v-.003h.009a7.073 7.073 0 0 0-2.074-4.999 7.022 7.022 0 0 0-4.984-2.081v.009h-.004v-.009a7.023 7.023 0 0 0-4.982 2.08 7.071 7.071 0 0 0-2.074 5.001h.009v.004h-.009c0 1.945.793 3.713 2.073 4.998a7.023 7.023 0 0 0 4.985 2.081Z" style="fill:#fff;fill-rule:nonzero"/>
    <path d="m130.012 45.304 48.384 23.259-48.384 23.256V45.304Zm-16.397-8.089h2.638v64.839h-2.638z" style="fill:#fff"/>
  </g>
</svg>
