<svg xmlns="http://www.w3.org/2000/svg" viewBox="0 0 50 70"><defs><style>.cls-1{fill:#fff;}.cls-2{fill:#b12626;}</style></defs><title>marker-icon-task-danger</title><g id="marker-icon-start-default"><path class="cls-1" d="M25,5a20,20,0,0,0-3,39.75C23,44.9,24,50,25,50s2-5.1,3-5.25A20,20,0,0,0,25,5Z"/><path class="cls-2" d="M23.33.05A25,25,0,0,0,9.89,44.92,29.75,29.75,0,0,1,22,68.53V70h6A31.89,31.89,0,0,1,40.29,44.77,25,25,0,0,0,23.33.05ZM28,44.75C27,44.9,26,50,25,50s-2-5.1-3-5.25a20,20,0,1,1,6,0Z"/></g></svg>