<svg xmlns="http://www.w3.org/2000/svg" viewBox="0 0 50 70"><defs><style>.cls-1{fill:#fff;}.cls-2{fill:#ffb739;}</style></defs><title>marker-icon-car-warning</title><g id="marker-icon-car-warning"><path class="cls-1" d="M25,5c-.64,0-1.26,0-1.88.09l-.25,0c-.59.06-1.16.15-1.73.26l-.32.07a15.33,15.33,0,0,0-1.65.42L18.88,6c-.55.18-1.09.37-1.62.6l-.16.07c-.51.22-1,.45-1.48.71l-.21.11c-.49.27-1,.56-1.42.86l-.3.2c-.43.3-.86.62-1.27,1l-.3.25c-.41.35-.81.7-1.19,1.08l-.22.23c-.36.37-.71.75-1,1.14A19.94,19.94,0,0,0,9,36.91H9c.37.49.76,1,1.17,1.42l.2.21c.36.38.72.75,1.1,1.11l.33.29c.35.31.71.61,1.08.89l.44.32c.35.26.71.5,1.08.73l.51.32c.36.21.73.41,1.1.59l.58.29c.37.18.76.33,1.14.49l.61.24c.41.14.84.27,1.26.39l.56.16c.62.15,1.24.28,1.88.38C23,44.9,24,50,25,50s2-5.1,3-5.25A20,20,0,0,0,25,5Z"/><path class="cls-2" d="M23.33.05A25.3,25.3,0,0,0,1.77,15.77c-.09.23-.17.46-.26.7a23.78,23.78,0,0,0-.79,2.65c-.08.31-.16.61-.22.92-.17.83-.3,1.67-.39,2.53a25.47,25.47,0,0,0-.06,3.9q0,.55.09,1.11A24.9,24.9,0,0,0,1.69,34a25.19,25.19,0,0,0,6.93,9.83c.41.36.84.71,1.27,1.05A29.75,29.75,0,0,1,22,68.53V70h6A31.89,31.89,0,0,1,40.29,44.77,25,25,0,0,0,23.33.05ZM8.93,36.88a20.36,20.36,0,0,1-2-3.33,2.08,2.08,0,1,1,2,3.33ZM28,44.75C27,44.9,26,50,25,50s-2-5.1-3-5.25c-.64-.1-1.26-.23-1.88-.38l-.56-.16c-.42-.12-.85-.25-1.26-.39l-.61-.24c-.38-.16-.77-.31-1.14-.49L16,42.8c-.37-.18-.74-.38-1.1-.59l-.51-.32c-.37-.23-.73-.47-1.08-.73l-.44-.32c-.37-.28-.73-.58-1.08-.89l-.33-.29c-.37-.35-.72-.71-1.07-1.08A4.16,4.16,0,1,0,6.09,31.5c-.15-.45-.29-.9-.41-1.35A5.49,5.49,0,0,1,14,34h10.9a5.52,5.52,0,0,1,10.92,0H38a2,2,0,0,0,2-2V27.58H5.18q-.07-.55-.12-1.11H40V25a2.69,2.69,0,0,0-.79-1.9l-7.9-7.82a2.7,2.7,0,0,0-1.88-.77h-4V13a2,2,0,0,0-2-2H10.73l.2-.21c.38-.38.78-.73,1.19-1.08l.3-.25c.41-.33.84-.65,1.27-1l.3-.2c.46-.3.93-.59,1.42-.86l.21-.11c.48-.26,1-.49,1.48-.71l.16-.07c.53-.23,1.07-.42,1.62-.6l.29-.09a15.33,15.33,0,0,1,1.65-.42l.32-.07c.57-.11,1.14-.2,1.73-.26l.25,0C23.74,5,24.36,5,25,5a20,20,0,0,1,3,39.75ZM27.8,23v-5.9a.32.32,0,0,1,.32-.31h1.45a.35.35,0,0,1,.22.08L36,22.82a.31.31,0,0,1-.22.54H28.12A.32.32,0,0,1,27.8,23Z"/><path class="cls-2" d="M30.38,30.66a4.17,4.17,0,1,0,4.17,4.18A4.18,4.18,0,0,0,30.38,30.66Zm0,6.26a2.09,2.09,0,1,1,2.09-2.08A2.08,2.08,0,0,1,30.38,36.92Z"/></g></svg>