<svg xmlns="http://www.w3.org/2000/svg" viewBox="0 0 50 70"><defs><style>.cls-1{fill:#fff;}.cls-2{fill:#7fae46;}</style></defs><title>marker-icon-task-success</title><g id="marker-icon-task-success"><path class="cls-1" d="M31.86,1a2.5,2.5,0,0,1-1.1,4.87A20.32,20.32,0,0,0,25,5a20,20,0,0,0-3,39.75c1,.15,2,5.25,3,5.25s2-5.1,3-5.25A20,20,0,0,0,45,25a21.1,21.1,0,0,0-.13-2.26,2.5,2.5,0,0,1,5-.51A25,25,0,0,0,31.86,1Z"/><path class="cls-2" d="M50,23.62a1.79,1.79,0,0,0,0-.23c0-.38,0-.77-.09-1.14v0a2.5,2.5,0,0,0-5,.55c0,.22,0,.45.05.68,0,.52.08,1,.08,1.56A20,20,0,0,1,28,44.75C27,44.9,26,50,25,50s-2-5.1-3-5.25c-.62-.1-1.22-.22-1.82-.37-.2,0-.39-.11-.59-.17-.39-.11-.78-.21-1.16-.35l-.68-.26c-.34-.13-.68-.26-1-.41l-.68-.34c-.31-.16-.62-.31-.92-.48s-.45-.27-.67-.41-.57-.35-.85-.54L13,40.94c-.26-.2-.53-.39-.78-.6l-.6-.54-.71-.66c-.2-.2-.38-.4-.57-.6s-.43-.47-.64-.72-.34-.42-.51-.64-.39-.51-.57-.77-.31-.46-.46-.7-.34-.54-.5-.81l-.4-.74c-.15-.28-.29-.57-.42-.86s-.23-.52-.34-.78-.23-.6-.34-.91-.19-.53-.27-.8-.18-.63-.26-.95-.13-.55-.19-.83-.12-.66-.17-1-.09-.57-.12-.86-.06-.67-.08-1,0-.58,0-.87c0-.1,0-.19,0-.29s0-.44,0-.66,0-.5,0-.76,0-.24,0-.36,0-.45.07-.68q.07-.59.18-1.17l.15-.75c.08-.32.16-.63.25-.95s.16-.6.26-.9.12-.33.18-.49A20,20,0,0,1,16.64,6.84l0,0c.43-.19.87-.37,1.31-.54l.42-.15c.38-.13.77-.26,1.16-.37l.66-.17c.35-.08.7-.17,1.05-.23l.16,0c.45-.08.9-.14,1.35-.19l.42,0A17.63,17.63,0,0,1,25,5h.07a17.14,17.14,0,0,1,1.76.09l.35,0c.49,0,1,.13,1.46.22l.76.15c.35.08.69.17,1,.27h.06A2.5,2.5,0,1,0,31.86,1l-.1,0C31.09.74,30.4.58,29.7.44l-.12,0c-.7-.13-1.42-.23-2.14-.3h0C26.73.05,26,0,25.33,0H25c-.64,0-1.29,0-1.93.08-.41,0-.81.09-1.21.14s-.66.07-1,.13S20,.52,19.54.62c-.27.06-.55.11-.82.18-.47.13-.94.27-1.4.42l-.67.22c-.49.18-1,.38-1.45.58l-.56.23c-.49.23-1,.48-1.44.74-.16.08-.33.16-.48.25-.48.27-.94.57-1.4.87l-.44.28c-.44.31-.88.64-1.3,1-.14.11-.29.21-.42.32-.41.33-.8.69-1.19,1l-.43.4c-.36.35-.7.72-1,1.09l-.44.48c-.31.36-.6.74-.89,1.11-.15.2-.31.39-.46.6s-.49.73-.73,1.1-.32.47-.46.71-.4.72-.6,1.09-.3.54-.44.82-.31.72-.47,1.08-.28.61-.39.92-.25.73-.37,1.1-.23.65-.32,1S.74,19,.65,19.39s-.17.65-.23,1-.13.88-.19,1.33-.09.59-.12.89,0,.58,0,.86,0,.56,0,.83,0,.56,0,.84,0,.56,0,.83,0,.55.05.82l.06.83c0,.27.08.54.11.81s.07.54.11.8.11.54.17.8.09.52.16.78.14.51.21.77.13.52.2.77.17.5.26.75.16.5.26.75.2.49.3.74l.3.71c.11.24.23.47.34.7s.23.48.35.71.26.44.38.67.26.46.4.69l.43.66.42.64c.15.21.32.41.47.62s.31.42.47.62.32.38.49.58l.51.6.54.56c.18.18.35.37.54.55s.4.37.59.55.36.34.55.5.43.35.65.52.37.32.57.46A29.72,29.72,0,0,1,22,68.49V70h6A31.87,31.87,0,0,1,40.29,44.77,24.94,24.94,0,0,0,50,25C50,24.53,50,24.08,50,23.62Z"/><path class="cls-2" d="M50,4a4.68,4.68,0,0,0-8.39-2.06l-2,2.76-3,4.05L24.81,24.83a1.18,1.18,0,0,1-1.65.26l-.05,0L16.2,20a4.68,4.68,0,0,0-5.54,7.54l11.68,8.58a4.55,4.55,0,0,0,1.38.68,4.67,4.67,0,0,0,5.16-1.68L42.84,16l3.24-4.44,3-4.11A4.69,4.69,0,0,0,50,4Z"/></g></svg>