<svg xmlns="http://www.w3.org/2000/svg" viewBox="0 0 50 70"><defs><style>.cls-1{fill:#fff;}.cls-2{fill:#7fae46;}</style></defs><title>marker-icon-start-default</title><g id="marker-icon-start-default"><path class="cls-1" d="M25,5a20,20,0,0,0-3,39.75C23,44.9,24,50,25,50s2-5.1,3-5.25A20,20,0,0,0,25,5Z"/><path class="cls-2" d="M23.33.05A25,25,0,0,0,9.89,44.92,29.75,29.75,0,0,1,22,68.53V70h6A31.89,31.89,0,0,1,40.29,44.77,25,25,0,0,0,23.33.05ZM28,44.75C27,44.9,26,50,25,50s-2-5.1-3-5.25a20,20,0,1,1,6,0Z"/><path class="cls-2" d="M14.9,31.06a15.36,15.36,0,0,0,2.2.53,18.16,18.16,0,0,0,2.19.39,22.44,22.44,0,0,0,2.47.14c1.47,0,2.21-.54,2.21-1.63a1.84,1.84,0,0,0-.67-1.27,17.74,17.74,0,0,0-1.71-1.44c-.69-.53-1.42-1.12-2.21-1.76a15.77,15.77,0,0,1-2.2-2.2A11.73,11.73,0,0,1,15.47,21a8.93,8.93,0,0,1-.67-3.58,9.13,9.13,0,0,1,.82-4,8,8,0,0,1,2.25-2.88,10.09,10.09,0,0,1,3.39-1.75,14,14,0,0,1,4.15-.6,22.15,22.15,0,0,1,2.3.12l2.07.21,2.06.29v9l-.86-.1-.87-.1c-.32,0-.65,0-1,0-.19,0-.43,0-.72,0a5.09,5.09,0,0,0-.81.12,1.58,1.58,0,0,0-.67.34.8.8,0,0,0-.29.67c0,.25.21.57.65,1s1,.83,1.58,1.34,1.31,1.11,2.06,1.78A14.3,14.3,0,0,1,33,25.11,13.64,13.64,0,0,1,34.55,28a9.85,9.85,0,0,1,.65,3.65,11.43,11.43,0,0,1-.67,4,8.47,8.47,0,0,1-2.09,3.21A9.73,9.73,0,0,1,28.82,41a15.52,15.52,0,0,1-5.24.8,32.22,32.22,0,0,1-3.38-.17c-1-.11-2-.25-2.76-.41a21.31,21.31,0,0,1-2.54-.58Zm4,5.76a14.4,14.4,0,0,0,1.44.24c.45.07.92.12,1.41.17a15.18,15.18,0,0,0,1.52.07A10.84,10.84,0,0,0,25.91,37a6.58,6.58,0,0,0,2.28-1,5.33,5.33,0,0,0,1.61-1.85,5.81,5.81,0,0,0,.6-2.76,5.27,5.27,0,0,0-.7-2.64,12.14,12.14,0,0,0-1.77-2.4,30.31,30.31,0,0,0-2.31-2.21c-.81-.7-1.58-1.41-2.3-2.13a13.55,13.55,0,0,1-1.78-2.16,4.11,4.11,0,0,1-.69-2.23A3.33,3.33,0,0,1,22,14.91,5.49,5.49,0,0,1,25.5,14c.26,0,.52,0,.8,0l.79.07a6.49,6.49,0,0,0,.77,0V12.87a4.51,4.51,0,0,1-.72,0l-.75-.07-.84,0a7.3,7.3,0,0,0-4.27,1.17,4.19,4.19,0,0,0-1.68,3.68,4.84,4.84,0,0,0,.7,2.52,12.54,12.54,0,0,0,1.77,2.3c.72.75,1.49,1.48,2.31,2.18S26,26,26.68,26.72A12,12,0,0,1,28.46,29a4.62,4.62,0,0,1,.69,2.4,4.16,4.16,0,0,1-1.56,3.51,6.88,6.88,0,0,1-4.29,1.2,17,17,0,0,1-3-.24c-.48-.07-.94-.15-1.39-.24Z"/></g></svg>