<svg xmlns="http://www.w3.org/2000/svg" viewBox="0 0 50 70"><defs><style>.cls-1{fill:#fff;}.cls-2{fill:#7fae46;}</style></defs><title>marker-icon-courier-success</title><g id="marker-icon-courier-success"><path class="cls-1" d="M28,44.75C27,44.9,26,50,25,50s-2-5.1-3-5.25a20,20,0,1,1,6,0Z"/><path class="cls-2" d="M23.33.05A25,25,0,0,0,9.89,44.92,29.75,29.75,0,0,1,22,68.53V70h6A31.89,31.89,0,0,1,40.29,44.77,25,25,0,0,0,23.33.05Zm15.84,35.7a1.53,1.53,0,0,1-1.42,1.42h-8.5a1.53,1.53,0,0,1-1.42-1.42V30.08a1.52,1.52,0,0,1,1.42-1.41h8.5a1.52,1.52,0,0,1,1.42,1.41ZM42,35.51V30.08a4.46,4.46,0,0,0-4.25-4.25h-8.5A4.46,4.46,0,0,0,25,30.08v5.67A4.45,4.45,0,0,0,29.25,40h8.5a2.63,2.63,0,0,0,.49-.06A19.91,19.91,0,0,1,28,44.75C27,44.9,26,50,25,50s-2-5.1-3-5.25a19.92,19.92,0,0,1-11.17-5.67v-.5A14,14,0,0,1,25,24.42a9.21,9.21,0,1,0-9.21-9.21,9.07,9.07,0,0,0,3.83,7.44A16.94,16.94,0,0,0,13,26.75a15.34,15.34,0,0,0-4.87,9A20,20,0,1,1,45,25,19.81,19.81,0,0,1,42,35.51ZM18.62,15.21a6.38,6.38,0,1,1,12.75,0,6.38,6.38,0,0,1-12.75,0Z"/><rect class="cls-2" x="30.67" y="30.79" width="5.67" height="2.83"/></g></svg>