<svg xmlns="http://www.w3.org/2000/svg" viewBox="0 0 50 70"><defs><style>.cls-1{fill:#fff;}.cls-2{fill:#7fae46;}</style></defs><title>marker-icon-point-success</title><g id="marker-icon-point-success"><path class="cls-1" d="M28,44.75C27,44.9,26,50,25,50s-2-5.1-3-5.25a20,20,0,1,1,6,0Z"/><path class="cls-2" d="M23.33.05A25,25,0,0,0,9.89,44.92,29.75,29.75,0,0,1,22,68.53V70h6A31.89,31.89,0,0,1,40.29,44.77,25,25,0,0,0,23.33.05ZM14,8.29l.76-.46H35.22l.76.46V35.12l-1.57-.78-1.26-.63-1.27.63-3,1.49-3-1.49-1.26-.63-1.26.63-3,1.49-3-1.49L16,33.65l-1.33.79-.68.4ZM28,44.75C27,44.9,26,50,25,50s-2-5.1-3-5.25A20,20,0,0,1,11.19,10.56v27L12.57,39l3.58-2.13L20.37,39l4.28-2.13L28.9,39l4.25-2.13L37.4,39l1.41-1.42v-27A20,20,0,0,1,28,44.75Z"/><rect class="cls-2" x="16.85" y="10.67" width="2.83" height="5.67"/><rect class="cls-2" x="21.1" y="10.67" width="2.83" height="5.67"/><rect class="cls-2" x="30.31" y="10.67" width="2.83" height="5.67"/><rect class="cls-2" x="16.85" y="17.75" width="16.29" height="2.83"/><rect class="cls-2" x="16.85" y="22" width="16.29" height="2.83"/><rect class="cls-2" x="16.85" y="26.25" width="16.29" height="4.25"/></g></svg>