<svg xmlns="http://www.w3.org/2000/svg" viewBox="0 0 50 70"><defs><style>.cls-1{fill:#ffb739;}.cls-2{fill:#fff;}</style></defs><title>marker-icon-courier-warning</title><g id="marker-icon-courier-warning"><path class="cls-1" d="M23.33.05A25,25,0,0,0,9.89,44.92,29.75,29.75,0,0,1,22,68.53V70h6A31.89,31.89,0,0,1,40.29,44.77,25,25,0,0,0,23.33.05ZM28,44.75C27,44.9,26,50,25,50s-2-5.1-3-5.25a20,20,0,1,1,6,0Z"/><path class="cls-2" d="M28,44.75C27,44.9,26,50,25,50s-2-5.1-3-5.25a20,20,0,1,1,6,0Z"/><path class="cls-1" d="M34.21,15.21a9.21,9.21,0,0,0-18.42,0,9.07,9.07,0,0,0,3.83,7.44A16.94,16.94,0,0,0,13,26.75C9.77,30,8,33.34,8,37.87V40h2.83V38.58A14,14,0,0,1,25,24.42,9.19,9.19,0,0,0,34.21,15.21ZM25,21.58a6.26,6.26,0,0,1-6.38-6.37,6.38,6.38,0,1,1,12.75,0A6.26,6.26,0,0,1,25,21.58Zm12.75,4.25h-8.5A4.46,4.46,0,0,0,25,30.08v5.67A4.45,4.45,0,0,0,29.25,40h8.5A4.45,4.45,0,0,0,42,35.75V30.08A4.46,4.46,0,0,0,37.75,25.83Zm1.42,9.92a1.53,1.53,0,0,1-1.42,1.42h-8.5a1.53,1.53,0,0,1-1.42-1.42V30.08a1.52,1.52,0,0,1,1.42-1.41h8.5a1.52,1.52,0,0,1,1.42,1.41Zm-8.5-5h5.66v2.83H30.67Z"/></g></svg>