<svg xmlns="http://www.w3.org/2000/svg" viewBox="0 0 50 70"><defs><style>.cls-1{fill:#fff;}.cls-2{fill:#822469;}</style></defs><title>marker-icon-finish-default</title><g id="marker-icon-finish-default"><path class="cls-1" d="M25,5c-.64,0-1.26,0-1.88.09l-.25,0c-.59.06-1.16.15-1.73.26l-.32.07a15.33,15.33,0,0,0-1.65.42L18.88,6c-.55.18-1.09.37-1.62.6l-.16.07c-.51.22-1,.45-1.48.71l-.21.11c-.49.27-1,.56-1.42.86l-.3.2c-.43.3-.86.62-1.27,1l-.3.25c-.41.35-.81.7-1.19,1.08l-.22.23c-.36.37-.71.75-1,1.14A19.94,19.94,0,0,0,9,36.91H9c.37.49.76,1,1.17,1.42l.2.21c.36.38.72.75,1.1,1.11l.33.29c.35.31.71.61,1.08.89l.44.32c.35.26.71.5,1.08.73l.51.32c.36.21.73.41,1.1.59l.58.29c.37.18.76.33,1.14.49l.61.24c.41.14.84.27,1.26.39l.56.16c.62.15,1.24.28,1.88.38C23,44.9,24,50,25,50s2-5.1,3-5.25A20,20,0,0,0,25,5Z"/><path class="cls-2" d="M49.49,20A24.79,24.79,0,0,0,45,10a25.42,25.42,0,0,0-5-5A24.92,24.92,0,0,0,30,.5,25.81,25.81,0,0,0,23.33.05,24.5,24.5,0,0,0,20,.53,24.87,24.87,0,0,0,10,5.05a25.56,25.56,0,0,0-5,5A24.76,24.76,0,0,0,.51,20c-.17.84-.31,1.7-.4,2.57A25.42,25.42,0,0,0,.51,30,24.82,24.82,0,0,0,5,40l0,0a24.44,24.44,0,0,0,3.6,3.87c.41.36.84.71,1.27,1.05L10,45a31.94,31.94,0,0,1,5.19,5A29,29,0,0,1,22,68.53V70h6a32,32,0,0,1,7-20,31.53,31.53,0,0,1,5-5l.29-.24A24.94,24.94,0,0,0,49.49,20ZM40,30v8.2A20.6,20.6,0,0,1,38.18,40H30v4.33a19.18,19.18,0,0,1-2,.42C27,44.9,26,50,25,50s-2-5.1-3-5.25c-.64-.1-1.26-.23-1.88-.38l-.12,0V40H11.83l-.07,0-.33-.29c-.38-.36-.74-.73-1.1-1.11l-.2-.21a1.83,1.83,0,0,0-.13-.16V30H5.64a19.85,19.85,0,0,1,0-10H10V11.8c.23-.26.46-.53.71-.78l.22-.23c.28-.28.58-.53.87-.79H20V5.66c.27-.07.54-.16.82-.21l.32-.07c.57-.11,1.14-.2,1.73-.26l.25,0C23.74,5,24.36,5,25,5a19.64,19.64,0,0,1,5,.66V10h8.2A19.11,19.11,0,0,1,40,11.8V20h4.34a19.41,19.41,0,0,1,0,10Z"/><rect class="cls-2" x="20" y="30" width="10" height="10"/><rect class="cls-2" x="20" y="10" width="10" height="10"/><rect class="cls-2" x="10" y="20" width="10" height="10"/><rect class="cls-2" x="30" y="20" width="10" height="10"/></g></svg>