<svg xmlns="http://www.w3.org/2000/svg" viewBox="0 0 50 70"><defs><style>.cls-1{fill:#fff;}.cls-2{fill:#4e92cf;}.cls-3{fill:#7fae46;}</style></defs><title>marker-icon-warhouse-default</title><g id="marker-icon-warhouse-default"><path class="cls-1" d="M28,44.75C27,44.9,26,50,25,50s-2-5.1-3-5.25a20,20,0,1,1,6,0Z"/><path class="cls-2" d="M11.94,38.16a1.23,1.23,0,0,0,1.23,1.23h7.89a1.24,1.24,0,0,0,0-2.47H13.17A1.24,1.24,0,0,0,11.94,38.16Z"/><path class="cls-2" d="M40.77,25.77H34.12V11.23A1.24,1.24,0,0,0,32.88,10H17.12a1.24,1.24,0,0,0-1.24,1.23V25.77H9.23A1.23,1.23,0,0,0,8,27V42.77A1.23,1.23,0,0,0,9.23,44H40.77A1.23,1.23,0,0,0,42,42.77V27A1.23,1.23,0,0,0,40.77,25.77Zm-17,15.76H10.46V28.23H23.77ZM18.35,25.77V12.46h13.3V25.77H18.35ZM39.54,41.53H26.23V28.23H39.54Z"/><path class="cls-2" d="M27.71,38.16a1.23,1.23,0,0,0,1.23,1.23h7.89a1.24,1.24,0,0,0,0-2.47H28.94A1.24,1.24,0,0,0,27.71,38.16Z"/><path class="cls-2" d="M28.94,21.16H21.06a1.23,1.23,0,0,0,0,2.46h7.88a1.23,1.23,0,0,0,0-2.46Z"/><path class="cls-3" d="M23.33.05A25,25,0,0,0,9.89,44.92,29.75,29.75,0,0,1,22,68.53V70h6A31.89,31.89,0,0,1,40.29,44.77,25,25,0,0,0,23.33.05ZM28,44.75C27,44.9,26,50,25,50s-2-5.1-3-5.25a20,20,0,1,1,6,0Z"/><path class="cls-2" d="M23.33.05A25,25,0,0,0,9.89,44.92,29.75,29.75,0,0,1,22,68.53V70h6A31.89,31.89,0,0,1,40.29,44.77,25,25,0,0,0,23.33.05ZM28,44.75C27,44.9,26,50,25,50s-2-5.1-3-5.25a20,20,0,1,1,6,0Z"/></g></svg>